<?xml version="1.0" encoding="UTF-8"?>
<svg width="140px" height="89px" viewBox="0 0 140 89" version="1.1" xmlns="http://www.w3.org/2000/svg" xmlns:xlink="http://www.w3.org/1999/xlink">
    <!-- Generator: Sketch 42 (36781) - http://www.bohemiancoding.com/sketch -->
    <title>Group 2</title>
    <desc>Created with Sketch.</desc>
    <defs>
        <path d="M138,77.9213764 C136.775265,82.2361126 133.323619,81.0233778 130.404008,81.900801 C131.099342,77.3615391 130.833324,73.1428173 129.359691,69.1013527 C127.858403,64.9889853 125.44844,61.6624582 122.178528,59.1468828 C118.938906,56.6549418 115.337131,55.4362984 111.416662,55.4185727 C106.646779,55.3949384 102.387861,57.0818362 98.8005726,60.5841434 C93.3208703,65.93288 91.180876,72.7868257 92.0803321,80.9037291 L46.0460922,80.9037291 C47.4341254,66.1411572 38.2459777,56.811519 29.221128,55.566287 C24.473633,54.9119125 19.9789865,55.93705 16.0058403,59.0035999 C9.49894074,64.0214563 6.79398798,71.163445 7.2535929,79.9701745 C6.07363298,79.7766687 5.10174635,79.4930571 4.12590896,79.4797628 C1.86212425,79.4502199 0.539937017,78.2108966 0,75.806107 L0,71.8754282 C0.397709705,71.3436565 0.701918122,70.6154248 1.20893215,70.3199961 C2.08204981,69.8103816 2.2361294,69.1161242 2.22296021,68.1293923 C2.1821357,65.1086339 2.20847409,62.0863984 2.20847409,59.0656399 L2.20847409,56.2088444 C4.17331806,56.2088444 5.92218723,56.225093 7.6710564,56.204413 C9.29876897,56.183733 10.2877756,55.1807526 10.2509018,53.6400919 C10.2166619,52.1806742 9.26452906,51.2766624 7.66710564,51.2530281 C5.88399656,51.2264395 4.09957057,51.2471195 2.33884913,51.2471195 C1.83710278,47.1657721 2.5324363,45.8688401 5.73255082,44.6265624 C7.13111938,44.0829736 8.51256799,43.4847305 9.90191812,42.9101217 C9.33037504,42.4655015 8.85101632,42.3517615 8.37034068,42.2409757 C6.94016605,41.9130499 6.15133123,40.8997294 6.31462926,39.5954117 C6.49109648,38.1847397 7.54726596,37.4018537 9.02089894,37.6337652 C11.2846837,37.9897568 13.5392499,38.4314227 15.8083023,38.7150342 C16.452276,38.7962771 17.2529631,38.6618571 17.7876324,38.2822312 C21.7686802,35.4638414 25.6825651,32.5228488 29.6596622,29.6926418 C33.6393931,26.8594807 37.6559977,24.0721109 42.4364157,23.2197991 C50.0877183,21.8578728 57.7798454,21.3571212 65.5101632,22.0809215 C70.5631835,22.5536074 75.5938162,23.280362 80.3334097,25.4842601 C88.4034927,29.2376817 95.601775,34.5731239 102.322015,40.7815579 C103.043687,41.4477497 103.985285,41.9544099 104.896593,42.1996157 C109.725737,43.5054105 114.620727,44.5305481 119.410364,45.9884887 C124.221071,47.453815 128.793415,49.6828246 133.078672,52.5957515 C134.236244,53.383069 135.171257,54.3151465 135.202863,56.1394187 C134.726138,56.0847644 134.290238,56.0626072 133.864873,55.9798872 C132.759977,55.7642243 131.666934,55.4687956 130.558088,55.3063098 C129.317549,55.123144 128.256112,55.9725015 128.015116,57.2206877 C127.767535,58.510234 128.387804,59.6727459 129.608589,60.1380461 C129.987861,60.2828062 130.392156,60.3492776 130.787232,60.4334748 C132.354366,60.7702635 133.924134,61.0981894 135.489951,61.4305466 C135.653249,64.4424422 135.786258,67.3051463 135.985113,70.1619418 C136.019353,70.6508762 136.282737,71.1575365 136.539536,71.5799995 C136.984655,72.3141398 137.507472,72.9862401 137.997366,73.6849289 C138,75.1000324 138,76.5107044 138,77.9213764 L138,77.9213764 Z M54.6943029,29.2554074 C55.0446035,34.6706154 55.4054395,40.2527406 55.7623246,45.7831658 C62.7920412,48.2307925 91.2111652,47.6089151 96.5262525,44.9249454 C84.5383338,33.3042577 70.9279702,27.2021779 54.6943029,29.2554074 L54.6943029,29.2554074 Z M51.565302,45.6354514 C51.2163184,40.2542177 50.8791869,35.036947 50.5420555,29.8152448 C43.3687947,30.5626794 36.3443458,36.8198591 32.6780418,43.8761735 C38.9465789,44.4611224 45.1308331,45.0357312 51.565302,45.6354514 L51.565302,45.6354514 Z M60.7850558,56.1660073 C61.9966218,56.0759015 62.8183796,55.1039411 62.8578872,53.8439377 C62.9013455,52.4938286 62.1098769,51.354951 60.8588033,51.2914338 C58.9334669,51.1924652 56.9989121,51.2072366 55.0722588,51.2810938 C53.8791297,51.3254081 53.0744918,52.3800885 53.0679072,53.6563405 C53.0586888,54.9429325 53.8132837,56.0020444 54.9985113,56.1349873 C55.9756656,56.245773 56.9699399,56.1586216 57.9576295,56.1586216 L57.9576295,56.1793016 C58.9005439,56.1793016 59.8460922,56.235433 60.7850558,56.1660073 L60.7850558,56.1660073 Z" id="path-1"></path>
        <mask id="mask-2" maskContentUnits="userSpaceOnUse" maskUnits="objectBoundingBox" x="-1" y="-1" width="140" height="62.150801">
            <rect x="-1" y="20.75" width="140" height="62.150801" fill="white"></rect>
            <use xlink:href="#path-1" fill="black"></use>
        </mask>
    </defs>
    <g id="Page-1" stroke="none" stroke-width="1" fill="none" fill-rule="evenodd">
        <g id="Splash" transform="translate(-92.000000, -219.000000)">
            <g id="Group-2" transform="translate(93.000000, 220.000000)">
                <path d="M28.2184798,61.6699121 C35.1575048,62.1969483 40.8665101,68.4179001 40.0712822,75.7747472 C39.4209849,81.7851252 33.036477,87.2419949 26.7439684,86.9917129 C18.988291,86.6824703 13.3775864,80.265384 13.8249809,73.7496288 C14.3089231,66.3374309 20.4691037,61.0815088 28.2184798,61.6699121 L28.2184798,61.6699121 Z M27.0502131,79.3990232 C30.0420848,79.4074461 32.2677147,77.1573146 32.255112,74.1322715 C32.2450299,71.3635268 29.9135376,69.1133953 27.0325694,69.090533 C24.1238753,69.0676707 21.6877809,71.3719498 21.6877809,74.1455076 C21.6865207,77.2174786 23.9033287,79.3906002 27.0502131,79.3990232 L27.0502131,79.3990232 Z" id="Shape" stroke="#000000" fill="#FFE301"></path>
                <g id="Group">
                    <g id="chat" opacity="0.786911232" transform="translate(92.836364, 0.000000)" stroke="#D0011B" stroke-width="2">
                        <path d="M5.24243607,0.316860444 C4.08096303,0.316860444 3.00978615,0.709530169 2.16403805,1.36428085 C1.03182314,2.24080484 0.30361167,3.58701867 0.30361167,5.08961588 L0.30361167,21.7966704 C0.30361167,24.4216859 2.52857701,26.5694258 5.24243607,26.5694258 L15.1200849,26.5694258 L24.9977337,33.7309695 L24.9977337,26.5694258 L34.8753825,26.5694258 C37.5917359,26.5694258 39.8142069,24.4216859 39.8142069,21.7966704 L39.8142069,5.08961588 C39.8167013,2.46460039 37.5942303,0.316860444 34.8778769,0.316860444 L16.117871,0.316860444 L5.24243607,0.316860444 Z" id="Shape" transform="translate(20.058910, 17.023915) scale(-1, 1) translate(-20.058910, -17.023915) "></path>
                    </g>
                    <path d="M112.273025,61.6699121 C119.21205,62.1969483 124.921056,68.4179001 124.125828,75.7747472 C123.47553,81.7851252 117.091022,87.2419949 110.798514,86.9917129 C103.042836,86.6824703 97.4321319,80.265384 97.8795264,73.7496288 C98.3634685,66.3374309 104.523649,61.0815088 112.273025,61.6699121 L112.273025,61.6699121 Z M111.104759,79.3990232 C114.09663,79.4074461 116.32226,77.1573146 116.309657,74.1322715 C116.299575,71.3635268 113.968083,69.1133953 111.087115,69.090533 C108.178421,69.0676707 105.742326,71.3719498 105.742326,74.1455076 C105.741066,77.2174786 107.957874,79.3906002 111.104759,79.3990232 L111.104759,79.3990232 Z" id="Shape" stroke="#000000" fill="#FFE301"></path>
                    <g id="Shape">
                        <use fill="#FEEF00" fill-rule="evenodd" xlink:href="#path-1"></use>
                        <use stroke="#000000" mask="url(#mask-2)" stroke-width="2" xlink:href="#path-1"></use>
                    </g>
                </g>
                <g id="Group-4" transform="translate(102.000000, 12.000000)" fill="#D0011B">
                    <rect id="Rectangle" x="0" y="0" width="5" height="5"></rect>
                    <rect id="Rectangle" x="16" y="0" width="5" height="5"></rect>
                    <rect id="Rectangle" x="8" y="0" width="5" height="5"></rect>
                </g>
            </g>
        </g>
    </g>
</svg>